<svg xmlns="http://www.w3.org/2000/svg" width="116" height="87" viewBox="0 0 116 87">
    <g fill="none" fill-rule="evenodd">
        <path fill="#929DB3" fill-opacity=".25" fill-rule="nonzero" d="M76.424 5.594l25.915 8.493v71.507l-25.915-8.493-.153-.786v.786l-25.102 8.39v.103l-.157-.05-.152.05-.014-.106-25.187-8.254L0 85.594V14.087l25.199-8.21.055-.283.405.133.408-.133v.266l24.945 8.175 25.26-8.44-.001.785.153-.786z"/>
        <path fill="#929DB3" d="M40.61 36H25c0-11.326 9.885-11.324 12.078-14.285l.251-1.35c-3.081-1.572-5.257-5.361-5.257-9.793C32.072 4.734 35.846 0 40.501 0c4.654 0 8.428 4.734 8.428 10.572 0 4.394-2.137 8.16-5.177 9.756l.285 1.535C46.444 24.68 56 24.864 56 36H40.61zM78.61 65H63c0-11.326 9.885-11.324 12.078-14.285l.251-1.35c-3.081-1.572-5.257-5.361-5.257-9.793 0-5.838 3.774-10.572 8.429-10.572 4.654 0 8.428 4.734 8.428 10.572 0 4.394-2.137 8.16-5.177 9.756l.285 1.535C84.444 53.68 94 53.864 94 65H78.61z"/>
        <path fill="#929DB3" d="M24.61 54H9c0-11.326 9.885-11.324 12.078-14.285l.251-1.35c-3.081-1.572-5.257-5.361-5.257-9.793 0-5.838 3.774-10.572 8.429-10.572 4.654 0 8.428 4.734 8.428 10.572 0 4.394-2.137 8.16-5.177 9.756l.285 1.535C30.444 42.68 40 42.864 40 54H24.61z"/>
        <path fill="#D73F3F" fill-rule="nonzero" stroke="#D73F3F" d="M114.288 81.891L98.466 66.09c4.035-4.82 6.329-10.904 6.329-17.225C104.795 34.09 92.69 22 77.897 22 63.104 22 51 34.089 51 48.864c0 10.193 6.012 19.753 15.268 24.178a26.71 26.71 0 0 0 11.63 2.686 26.97 26.97 0 0 0 12.262-2.923 27.333 27.333 0 0 0 4.983-3.319l15.822 15.803c.475.474 1.108.711 1.662.711.553 0 1.186-.237 1.66-.711.95-.948.95-2.45 0-3.398zM93.56 64.51c-1.028.948-2.136 1.896-3.322 2.686a21.82 21.82 0 0 1-2.295 1.343c-3.006 1.58-6.487 2.45-10.047 2.45a22.09 22.09 0 0 1-9.572-2.213c-.712-.316-1.424-.79-2.136-1.185-6.408-3.95-10.442-11.062-10.442-18.726 0-12.168 9.968-22.123 22.15-22.123 12.184 0 22.151 9.955 22.151 22.123 0 5.926-2.294 11.457-6.487 15.645z"/>
    </g>
</svg>
