<svg xmlns="http://www.w3.org/2000/svg" width="194.625" height="117.5" viewBox="0 0 194.625 117.5"><defs><clipPath id="a"><path d="M0 122.8h396.5V0H0v122.8z"/></clipPath></defs><g clip-path="url(#a)" transform="matrix(1.25 0 0 -1.25 0 117.5)" fill="#d73f3f"><path d="M76.335 40.146c0-.817.452-1.426 1.004-1.812.552-.391 1.204-.596 1.955-.596.75 0 1.405.205 1.956.596.55.386.863.995.863 1.812v12.53c0 .82-.313 1.428-.863 1.815-.55.388-1.206.649-1.956.649s-1.403-.261-1.955-.649c-.552-.387-1.004-.995-1.004-1.815v-12.53zm-3.958 12.537c0 .952.202 1.801.604 2.535a5.423 5.423 0 0 0 1.593 1.814 7.228 7.228 0 0 0 2.22 1.082 8.706 8.706 0 0 0 2.477.365c.831 0 1.658-.123 2.481-.365a7.246 7.246 0 0 0 2.214-1.082 5.429 5.429 0 0 0 1.595-1.814c.405-.734.605-1.583.605-2.535V40.152c0-.973-.2-1.825-.605-2.547a5.469 5.469 0 0 0-1.595-1.8 7.136 7.136 0 0 0-2.214-1.083 8.72 8.72 0 0 0-2.48-.364 8.67 8.67 0 0 0-2.479.364 7.12 7.12 0 0 0-2.219 1.083 5.463 5.463 0 0 0-1.593 1.8c-.402.722-.604 1.574-.604 2.547v12.531zm-7.137 5.813V48.32h-6.31v10.177h-3.449v-24.16h3.45v10.18h6.307v-10.18h3.713v24.16H65.24zm37.24 0H88.789v-3.553h5.06l-.06-20.606h3.64v20.606h5.05v3.553z"/><path d="M77.871 14.969c-18.61 0-33.696 14.043-33.696 31.364 0 17.326 15.086 31.368 33.696 31.368 18.609 0 33.696-14.042 33.696-31.368 0-17.321-15.087-31.364-33.696-31.364m50.003 21.992h27.866l-16.662 18.876-16.588 18.876-16.588 18.82H22.555l16.588-18.82H11.216l16.59-18.876.129-.127H.001l16.656-18.876 16.597-18.876L49.842-.863h83.347l-16.597 18.82-.122.183h27.931l-16.527 18.82z"/></g></svg>